<svg xmlns="http://www.w3.org/2000/svg" height="16.5mm" width="73.2mm" version="1.1" viewBox="0 0 73.208535 16.495764">
 <g transform="translate(-6.93 -28.8)">
  <g aria-label="KENNEDY" style="font-variant-ligatures:normal;font-variant-numeric:normal;font-variant-caps:normal;font-feature-settings:normal" transform="matrix(.157 0 0 .157 2.82 11.7)">
   <path style="font-variant-ligatures:normal;font-variant-numeric:normal;font-variant-caps:normal;font-feature-settings:normal" d="m63.2 111v-1.86h25.6v1.86q-4.69 0-7.13 1.27-2.44 1.17-7.71 6.35l-18.6 18.4 22.8 24.4q9.57 10.5 15.3 10.5v1.86h-29.8v-1.86q3.71 0 4.39-0.0977 2.44-0.391 2.44-2.34 0-2.44-7.13-10.5-2.25-2.54-5.57-5.86l-10.4-10.3-2.54 2.05v18.3q0 5.37 1.56 7.13 1.56 1.66 7.23 1.66v1.86h-27.5v-1.86q5.66 0 7.23-1.86 1.56-1.86 1.56-8.01v-42.3q0-5.57-1.76-7.13-1.76-1.66-7.03-1.66v-1.86h27.7v1.86q-5.66 0-7.32 1.66t-1.66 7.13v20q17.1-15.4 20.7-19 4.2-4.3 4.2-6.74 0-1.86-1.46-2.44-1.46-0.586-5.18-0.586z"/>
   <path style="font-variant-ligatures:normal;font-variant-numeric:normal;font-variant-caps:normal;font-feature-settings:normal" d="m152 157-4.39 16.5h-53.5v-1.86q4.88 0 6.64-1.66 1.86-1.76 1.86-7.13v-43.4q0-5.57-1.76-7.13-1.76-1.66-6.74-1.66v-1.86h51.9v14h-2.15q-1.07-6.45-3.91-8.3-2.73-1.95-10.9-1.95h-13q-1.86 0-2.54 0.586-0.684 0.488-0.684 2.73v21.7h15q6.25 0 8.01-1.76 1.86-1.86 2.73-7.52h2.25v22.7h-2.25q-0.879-5.86-2.83-7.52-1.86-1.76-7.91-1.76h-15v24q0 3.03 1.86 3.61 1.95 0.488 12.7 0.488 9.28 0 13.7-2.64 4.39-2.64 7.71-10.2z"/>
   <path style="font-variant-ligatures:normal;font-variant-numeric:normal;font-variant-caps:normal;font-feature-settings:normal" d="m222 109v1.86q-5.47 0.586-6.93 2.15-2.34 2.44-2.34 10.4v51.4h-1.66l-43-53.5v38.1q0 7.52 1.76 10.1 1.76 2.44 7.23 2.44v1.86h-22.9v-1.86q5.76 0 7.62-2.34t1.86-10.2v-43.1q-2.83-3.42-4.69-4.39-1.76-0.977-4.79-0.977v-1.86h16.7l37.6 47v-32.6q0-8.01-2.15-10.4-1.76-2.05-7.23-2.05v-1.86z"/>
   <path style="font-variant-ligatures:normal;font-variant-numeric:normal;font-variant-caps:normal;font-feature-settings:normal" d="m293 109v1.86q-5.47 0.586-6.93 2.15-2.34 2.44-2.34 10.4v51.4h-1.66l-43-53.5v38.1q0 7.52 1.76 10.1 1.76 2.44 7.23 2.44v1.86h-22.9v-1.86q5.76 0 7.62-2.34t1.86-10.2v-43.1q-2.83-3.42-4.69-4.39-1.76-0.977-4.79-0.977v-1.86h16.7l37.6 47v-32.6q0-8.01-2.15-10.4-1.76-2.05-7.23-2.05v-1.86z"/>
   <path style="font-variant-ligatures:normal;font-variant-numeric:normal;font-variant-caps:normal;font-feature-settings:normal" d="m352 157-4.39 16.5h-52.7v-1.86q4.88 0 6.64-1.66 1.86-1.76 1.86-7.13v-43.4q0-5.57-1.76-7.13-1.76-1.66-6.74-1.66v-1.86h51.9v14h-2.15q-1.07-6.45-3.91-8.3-2.73-1.95-10.9-1.95h-13.2q-1.86 0-2.54 0.586-0.684 0.488-0.684 2.73v21.7h15q6.25 0 8.01-1.76 1.86-1.86 2.73-7.52h2.25v22.7h-2.25q-0.879-5.86-2.83-7.52-1.86-1.76-7.91-1.76h-15v24q0 3.03 1.86 3.61 1.95 0.488 12.7 0.488 9.28 0 13.7-2.64 4.39-2.64 7.71-10.2z"/>
   <path style="font-variant-ligatures:normal;font-variant-numeric:normal;font-variant-caps:normal;font-feature-settings:normal" d="m355 173v-1.86q5.47 0 7.03-1.76t1.56-7.03v-43.4q0-5.57-1.56-7.13-1.46-1.66-7.03-1.66v-1.86h26.4q18.1 0 28.2 8.01 10.7 8.5 10.7 24.5 0 12.4-7.52 20.9-9.96 11.2-30.1 11.2zm18.6-57.2v49.6q0 2.44 1.17 3.22 1.17 0.781 4.69 0.781 6.35 0 10.5-0.977 8.4-1.95 13.3-7.42 6.45-7.13 6.45-20 0-6.74-2.05-12.2-2.05-5.57-7.03-9.96-3.91-3.52-8.3-4.98-5.47-1.86-14.2-1.86-3.03 0-4 1.17-0.586 0.684-0.586 2.64z"/>
   <path style="font-variant-ligatures:normal;font-variant-numeric:normal;font-variant-caps:normal;font-feature-settings:normal" d="m493 109v1.86q-4.39 0.488-7.13 3.03-2.64 2.44-6.35 8.11l-14.5 22.1v18.9q0 5.47 1.76 7.13t8.3 1.66v1.86h-29.9v-1.86q6.74 0 8.5-2.15 1.37-1.66 1.37-7.71v-17l-12.8-18.8q-6.05-8.89-9.96-13-2.25-2.34-5.86-2.34v-1.86h27.3v1.86q-2.93 0-4.98 0.391-1.95 0.293-1.95 2.64 0 0.781 0.488 2.05 0.586 1.27 1.17 2.15l14.5 21.7 14-22.1q0.781-1.27 1.07-1.86 0.293-0.684 0.293-1.76 0-2.05-1.86-2.64-1.86-0.586-4.88-0.586v-1.86z"/>
  </g>
 </g>
 <g transform="translate(-6.93 -28.8)">
  <g aria-label="software solutions" transform="matrix(.157 0 0 .157 5.33 10.8)">
   <path style="font-variant-ligatures:normal;font-variant-numeric:normal;font-variant-caps:normal;font-feature-settings:normal" d="m29.9 200v3.28q-1.44-0.839-2.9-1.26-1.46-0.419-2.97-0.419-2.28 0-3.41 0.747-1.11 0.729-1.11 2.24 0 1.37 0.839 2.04 0.839 0.674 4.17 1.31l1.35 0.255q2.5 0.474 3.77 1.9 1.29 1.42 1.29 3.7 0 3.03-2.15 4.74-2.15 1.7-5.98 1.7-1.51 0-3.17-0.328-1.66-0.31-3.59-0.948v-3.46q1.88 0.966 3.59 1.46 1.71 0.474 3.24 0.474 2.22 0 3.45-0.893 1.22-0.911 1.22-2.53 0-2.33-4.47-3.23l-0.146-0.0365-1.26-0.255q-2.9-0.565-4.23-1.9-1.33-1.35-1.33-3.66 0-2.93 1.99-4.52 1.99-1.6 5.67-1.6 1.64 0 3.15 0.31 1.51 0.292 2.97 0.893z"/>
   <path style="font-variant-ligatures:normal;font-variant-numeric:normal;font-variant-caps:normal;font-feature-settings:normal" d="m48.7 201q-2.55 0-3.86 1.99t-1.31 5.89q0 3.88 1.31 5.89 1.31 1.99 3.86 1.99 2.57 0 3.88-1.99 1.31-2.01 1.31-5.89 0-3.9-1.31-5.89t-3.88-1.99zm0-2.84q4.25 0 6.49 2.75 2.26 2.75 2.26 7.97 0 5.23-2.24 7.98-2.24 2.73-6.51 2.73-4.25 0-6.49-2.73-2.24-2.75-2.24-7.98 0-5.21 2.24-7.97 2.24-2.75 6.49-2.75z"/>
   <path style="font-variant-ligatures:normal;font-variant-numeric:normal;font-variant-caps:normal;font-feature-settings:normal" d="m82.1 191v2.79h-3.81q-1.8 0-2.52 0.747-0.693 0.729-0.693 2.61v1.8h7.02v2.61h-7.02v17.8h-3.4v-17.8h-5.45v-2.61h5.45v-1.42q0-3.35 1.53-4.94 1.55-1.59 4.81-1.59z"/>
   <path style="font-variant-ligatures:normal;font-variant-numeric:normal;font-variant-caps:normal;font-feature-settings:normal" d="m99.2 193v5.8h7.62v2.61h-7.62v11.1q0 2.26 0.857 3.15 0.857 0.893 2.99 0.893h3.77v2.68h-4.1q-3.77 0-5.32-1.51t-1.55-5.21v-11.1h-5.45v-2.61h5.45v-5.8z"/>
   <path style="font-variant-ligatures:normal;font-variant-numeric:normal;font-variant-caps:normal;font-feature-settings:normal" d="m113 199h3.32l3.55 16.5 2.92-10.5h2.86l2.95 10.5 3.55-16.5h3.32l-4.78 20.4h-3.21l-3.26-11.2-3.24 11.2h-3.21z"/>
   <path style="font-variant-ligatures:normal;font-variant-numeric:normal;font-variant-caps:normal;font-feature-settings:normal" d="m151 209h-1.11q-2.93 0-4.43 1.04-1.48 1.02-1.48 3.06 0 1.84 1.11 2.86t3.08 1.02q2.77 0 4.36-1.91 1.59-1.93 1.6-5.32v-0.747zm6.51-1.39v11.6h-3.37v-3.03q-1.08 1.82-2.72 2.7-1.62 0.857-3.96 0.857-3.12 0-4.98-1.75-1.86-1.77-1.86-4.72 0-3.41 2.28-5.18 2.3-1.77 6.73-1.77h4.5v-0.529q-0.0182-2.44-1.24-3.54-1.22-1.11-3.9-1.11-1.71 0-3.46 0.492t-3.41 1.44v-3.35q1.86-0.711 3.55-1.06 1.71-0.365 3.32-0.365 2.53 0 4.32 0.747 1.8 0.747 2.92 2.24 0.693 0.911 0.984 2.26 0.292 1.33 0.292 4.01z"/>
   <path style="font-variant-ligatures:normal;font-variant-numeric:normal;font-variant-caps:normal;font-feature-settings:normal" d="m185 203q-1.08-0.839-2.19-1.22-1.11-0.383-2.44-0.383-3.14 0-4.79 1.97-1.66 1.97-1.66 5.69v10.2h-3.37v-20.4h3.37v3.99q0.839-2.17 2.57-3.32 1.75-1.17 4.14-1.17 1.24 0 2.32 0.31t2.06 0.966z"/>
   <path style="font-variant-ligatures:normal;font-variant-numeric:normal;font-variant-caps:normal;font-feature-settings:normal" d="m209 208v1.64h-14.5v0.109q0 3.34 1.73 5.16 1.75 1.82 4.92 1.82 1.6 0 3.35-0.51t3.74-1.55v3.34q-1.91 0.784-3.7 1.17-1.77 0.401-3.43 0.401-4.76 0-7.44-2.84-2.68-2.86-2.68-7.88 0-4.89 2.62-7.8 2.62-2.92 7-2.92 3.9 0 6.14 2.64 2.26 2.64 2.26 7.22zm-3.35-0.984q-0.0729-2.95-1.4-4.48-1.31-1.55-3.79-1.55-2.42 0-3.99 1.6t-1.86 4.45z"/>
   <path style="font-variant-ligatures:normal;font-variant-numeric:normal;font-variant-caps:normal;font-feature-settings:normal" d="m257 200v3.28q-1.44-0.839-2.9-1.26-1.46-0.419-2.97-0.419-2.28 0-3.41 0.747-1.11 0.729-1.11 2.24 0 1.37 0.839 2.04 0.839 0.674 4.17 1.31l1.35 0.255q2.5 0.474 3.77 1.9 1.29 1.42 1.29 3.7 0 3.03-2.15 4.74-2.15 1.7-5.98 1.7-1.51 0-3.17-0.328-1.66-0.31-3.59-0.948v-3.46q1.88 0.966 3.59 1.46 1.71 0.474 3.24 0.474 2.22 0 3.45-0.893 1.22-0.911 1.22-2.53 0-2.33-4.47-3.23l-0.146-0.0365-1.26-0.255q-2.9-0.565-4.23-1.9-1.33-1.35-1.33-3.66 0-2.93 1.99-4.52 1.99-1.6 5.67-1.6 1.64 0 3.15 0.31 1.51 0.292 2.97 0.893z"/>
   <path style="font-variant-ligatures:normal;font-variant-numeric:normal;font-variant-caps:normal;font-feature-settings:normal" d="m276 201q-2.55 0-3.86 1.99t-1.31 5.89q0 3.88 1.31 5.89 1.31 1.99 3.86 1.99 2.57 0 3.88-1.99 1.31-2.01 1.31-5.89 0-3.9-1.31-5.89t-3.88-1.99zm0-2.84q4.25 0 6.49 2.75 2.26 2.75 2.26 7.97 0 5.23-2.24 7.98-2.24 2.73-6.51 2.73-4.25 0-6.49-2.73-2.24-2.75-2.24-7.98 0-5.21 2.24-7.97 2.24-2.75 6.49-2.75z"/>
   <path style="font-variant-ligatures:normal;font-variant-numeric:normal;font-variant-caps:normal;font-feature-settings:normal" d="m302 212q0 2.26 0.82 3.41 0.839 1.15 2.46 1.15h3.92v2.84h-4.25q-3.01 0-4.67-1.93-1.64-1.93-1.64-5.47v-18.5h-5.38v-2.62h8.73z"/>
   <path style="font-variant-ligatures:normal;font-variant-numeric:normal;font-variant-caps:normal;font-feature-settings:normal" d="m319 212v-12.7h3.35v12.7q0 2.75 0.966 4.05 0.984 1.29 3.03 1.29 2.37 0 3.63-1.66 1.26-1.68 1.26-4.79v-11.5h3.37v20.4h-3.37v-3.06q-0.893 1.77-2.44 2.68-1.53 0.911-3.59 0.911-3.14 0-4.67-2.04-1.53-2.06-1.53-6.22z"/>
   <path style="font-variant-ligatures:normal;font-variant-numeric:normal;font-variant-caps:normal;font-feature-settings:normal" d="m352 193v5.8h7.62v2.61h-7.62v11.1q0 2.26 0.857 3.15 0.857 0.893 2.99 0.893h3.77v2.68h-4.1q-3.77 0-5.32-1.51t-1.55-5.21v-11.1h-5.45v-2.61h5.45v-5.8z"/>
   <path style="font-variant-ligatures:normal;font-variant-numeric:normal;font-variant-caps:normal;font-feature-settings:normal" d="m371 199h8.59v17.8h6.65v2.61h-16.7v-2.61h6.65v-15.2h-5.23zm5.23-7.95h3.35v4.25h-3.35z"/>
   <path style="font-variant-ligatures:normal;font-variant-numeric:normal;font-variant-caps:normal;font-feature-settings:normal" d="m403 201q-2.55 0-3.86 1.99t-1.31 5.89q0 3.88 1.31 5.89 1.31 1.99 3.86 1.99 2.57 0 3.88-1.99 1.31-2.01 1.31-5.89 0-3.9-1.31-5.89t-3.88-1.99zm0-2.84q4.25 0 6.49 2.75 2.26 2.75 2.26 7.97 0 5.23-2.24 7.98-2.24 2.73-6.51 2.73-4.25 0-6.49-2.73-2.24-2.75-2.24-7.98 0-5.21 2.24-7.97 2.24-2.75 6.49-2.75z"/>
   <path style="font-variant-ligatures:normal;font-variant-numeric:normal;font-variant-caps:normal;font-feature-settings:normal" d="m436 207v12.7h-3.37v-13q0-2.75-0.966-4.05-0.966-1.29-3.03-1.29-2.35 0-3.63 1.68-1.26 1.66-1.26 4.78v11.5h-3.35v-20.4h3.35v3.06q0.893-1.75 2.42-2.64 1.53-0.911 3.63-0.911 3.12 0 4.65 2.06 1.55 2.04 1.55 6.2z"/>
   <path style="font-variant-ligatures:normal;font-variant-numeric:normal;font-variant-caps:normal;font-feature-settings:normal" d="m460 200v3.28q-1.44-0.839-2.9-1.26-1.46-0.419-2.97-0.419-2.28 0-3.41 0.747-1.11 0.729-1.11 2.24 0 1.37 0.839 2.04 0.839 0.674 4.17 1.31l1.35 0.255q2.5 0.474 3.77 1.9 1.29 1.42 1.29 3.7 0 3.03-2.15 4.74-2.15 1.7-5.98 1.7-1.51 0-3.17-0.328-1.66-0.31-3.59-0.948v-3.46q1.88 0.966 3.59 1.46 1.71 0.474 3.24 0.474 2.22 0 3.45-0.893 1.22-0.911 1.22-2.53 0-2.33-4.47-3.23l-0.146-0.0365-1.26-0.255q-2.9-0.565-4.23-1.9-1.33-1.35-1.33-3.66 0-2.93 1.99-4.52 1.99-1.6 5.67-1.6 1.64 0 3.15 0.31 1.51 0.292 2.97 0.893z"/>
  </g>
 </g>
</svg>
